ISO-10303-21;
HEADER;
/* Generated by software containing ST-Developer
 * from STEP Tools, Inc. (www.steptools.com) 
 */

FILE_DESCRIPTION(
/* description */ (''),
/* implementation_level */ '2;1');

FILE_NAME(
/* name */ 'barda_bottom_plate_PCB.step',
/* time_stamp */ '2026-08-24T22:02:35+09:00',
/* author */ (''),
/* organization */ (''),
/* preprocessor_version */ 'ST-DEVELOPER v20.1',
/* originating_system */ 'Autodesk Translation Framework v15.8.0.0',
/* authorisation */ '');

FILE_SCHEMA (('AUTOMOTIVE_DESIGN { 1 0 10303 214 3 1 1 }'));
ENDSEC;

DATA;
#10=MECHANICAL_DESIGN_GEOMETRIC_PRESENTATION_REPRESENTATION('',(#13),#479);
#11=SHAPE_REPRESENTATION_RELATIONSHIP('SRR','None',#486,#12);
#12=ADVANCED_BREP_SHAPE_REPRESENTATION('',(#14),#478);
#13=STYLED_ITEM('',(#496),#14);
#14=MANIFOLD_SOLID_BREP('\X2\30DC30C730A3\X0\1',#275);
#15=FACE_BOUND('',#47,.T.);
#16=FACE_BOUND('',#48,.T.);
#17=FACE_BOUND('',#49,.T.);
#18=FACE_BOUND('',#50,.T.);
#19=FACE_BOUND('',#52,.T.);
#20=FACE_BOUND('',#53,.T.);
#21=FACE_BOUND('',#54,.T.);
#22=FACE_BOUND('',#55,.T.);
#23=PLANE('',#292);
#24=PLANE('',#293);
#25=PLANE('',#294);
#26=PLANE('',#302);
#27=PLANE('',#312);
#28=PLANE('',#313);
#29=FACE_OUTER_BOUND('',#43,.T.);
#30=FACE_OUTER_BOUND('',#44,.T.);
#31=FACE_OUTER_BOUND('',#45,.T.);
#32=FACE_OUTER_BOUND('',#46,.T.);
#33=FACE_OUTER_BOUND('',#51,.T.);
#34=FACE_OUTER_BOUND('',#56,.T.);
#35=FACE_OUTER_BOUND('',#57,.T.);
#36=FACE_OUTER_BOUND('',#58,.T.);
#37=FACE_OUTER_BOUND('',#59,.T.);
#38=FACE_OUTER_BOUND('',#60,.T.);
#39=FACE_OUTER_BOUND('',#61,.T.);
#40=FACE_OUTER_BOUND('',#62,.T.);
#41=FACE_OUTER_BOUND('',#63,.T.);
#42=FACE_OUTER_BOUND('',#64,.T.);
#43=EDGE_LOOP('',(#181,#182,#183,#184));
#44=EDGE_LOOP('',(#185,#186,#187,#188));
#45=EDGE_LOOP('',(#189,#190,#191,#192));
#46=EDGE_LOOP('',(#193,#194,#195,#196,#197,#198,#199,#200));
#47=EDGE_LOOP('',(#201));
#48=EDGE_LOOP('',(#202));
#49=EDGE_LOOP('',(#203));
#50=EDGE_LOOP('',(#204));
#51=EDGE_LOOP('',(#205,#206,#207,#208,#209,#210,#211,#212));
#52=EDGE_LOOP('',(#213));
#53=EDGE_LOOP('',(#214));
#54=EDGE_LOOP('',(#215));
#55=EDGE_LOOP('',(#216));
#56=EDGE_LOOP('',(#217,#218,#219,#220));
#57=EDGE_LOOP('',(#221,#222,#223,#224));
#58=EDGE_LOOP('',(#225,#226,#227,#228));
#59=EDGE_LOOP('',(#229,#230,#231,#232));
#60=EDGE_LOOP('',(#233,#234,#235,#236));
#61=EDGE_LOOP('',(#237,#238,#239,#240));
#62=EDGE_LOOP('',(#241,#242,#243,#244));
#63=EDGE_LOOP('',(#245,#246,#247,#248));
#64=EDGE_LOOP('',(#249,#250,#251,#252));
#65=CIRCLE('',#290,2.381250077504);
#66=CIRCLE('',#291,2.381250077504);
#67=CIRCLE('',#295,2.381250077504);
#68=CIRCLE('',#296,2.381250077504);
#69=CIRCLE('',#297,2.381250077504);
#70=CIRCLE('',#298,1.1);
#71=CIRCLE('',#299,1.1);
#72=CIRCLE('',#300,1.1);
#73=CIRCLE('',#301,1.1);
#74=CIRCLE('',#303,2.381250077504);
#75=CIRCLE('',#304,2.381250077504);
#76=CIRCLE('',#305,2.381250077504);
#77=CIRCLE('',#306,1.1);
#78=CIRCLE('',#307,1.1);
#79=CIRCLE('',#308,1.1);
#80=CIRCLE('',#309,1.1);
#81=LINE('',#405,#101);
#82=LINE('',#409,#102);
#83=LINE('',#414,#103);
#84=LINE('',#415,#104);
#85=LINE('',#416,#105);
#86=LINE('',#419,#106);
#87=LINE('',#421,#107);
#88=LINE('',#422,#108);
#89=LINE('',#427,#109);
#90=LINE('',#431,#110);
#91=LINE('',#445,#111);
#92=LINE('',#449,#112);
#93=LINE('',#460,#113);
#94=LINE('',#462,#114);
#95=LINE('',#464,#115);
#96=LINE('',#466,#116);
#97=LINE('',#469,#117);
#98=LINE('',#471,#118);
#99=LINE('',#473,#119);
#100=LINE('',#475,#120);
#101=VECTOR('',#323,1.);
#102=VECTOR('',#326,1.);
#103=VECTOR('',#331,1.);
#104=VECTOR('',#332,1.);
#105=VECTOR('',#333,1.);
#106=VECTOR('',#336,1.);
#107=VECTOR('',#337,1.);
#108=VECTOR('',#338,1.);
#109=VECTOR('',#343,1.);
#110=VECTOR('',#346,1.);
#111=VECTOR('',#361,1.);
#112=VECTOR('',#364,1.);
#113=VECTOR('',#377,1.);
#114=VECTOR('',#380,1.);
#115=VECTOR('',#383,1.);
#116=VECTOR('',#386,1.);
#117=VECTOR('',#391,1.1);
#118=VECTOR('',#394,1.1);
#119=VECTOR('',#397,1.1);
#120=VECTOR('',#400,1.1);
#121=VERTEX_POINT('',#403);
#122=VERTEX_POINT('',#404);
#123=VERTEX_POINT('',#406);
#124=VERTEX_POINT('',#408);
#125=VERTEX_POINT('',#412);
#126=VERTEX_POINT('',#413);
#127=VERTEX_POINT('',#418);
#128=VERTEX_POINT('',#420);
#129=VERTEX_POINT('',#424);
#130=VERTEX_POINT('',#426);
#131=VERTEX_POINT('',#428);
#132=VERTEX_POINT('',#430);
#133=VERTEX_POINT('',#433);
#134=VERTEX_POINT('',#435);
#135=VERTEX_POINT('',#437);
#136=VERTEX_POINT('',#439);
#137=VERTEX_POINT('',#442);
#138=VERTEX_POINT('',#444);
#139=VERTEX_POINT('',#446);
#140=VERTEX_POINT('',#448);
#141=VERTEX_POINT('',#451);
#142=VERTEX_POINT('',#453);
#143=VERTEX_POINT('',#455);
#144=VERTEX_POINT('',#457);
#145=EDGE_CURVE('',#121,#122,#81,.T.);
#146=EDGE_CURVE('',#122,#123,#65,.T.);
#147=EDGE_CURVE('',#124,#123,#82,.T.);
#148=EDGE_CURVE('',#121,#124,#66,.T.);
#149=EDGE_CURVE('',#125,#126,#83,.T.);
#150=EDGE_CURVE('',#126,#122,#84,.T.);
#151=EDGE_CURVE('',#125,#121,#85,.T.);
#152=EDGE_CURVE('',#123,#127,#86,.T.);
#153=EDGE_CURVE('',#128,#127,#87,.T.);
#154=EDGE_CURVE('',#124,#128,#88,.T.);
#155=EDGE_CURVE('',#128,#129,#67,.T.);
#156=EDGE_CURVE('',#129,#130,#89,.T.);
#157=EDGE_CURVE('',#130,#131,#68,.T.);
#158=EDGE_CURVE('',#131,#132,#90,.T.);
#159=EDGE_CURVE('',#132,#125,#69,.T.);
#160=EDGE_CURVE('',#133,#133,#70,.T.);
#161=EDGE_CURVE('',#134,#134,#71,.T.);
#162=EDGE_CURVE('',#135,#135,#72,.T.);
#163=EDGE_CURVE('',#136,#136,#73,.T.);
#164=EDGE_CURVE('',#137,#126,#74,.T.);
#165=EDGE_CURVE('',#138,#137,#91,.T.);
#166=EDGE_CURVE('',#139,#138,#75,.T.);
#167=EDGE_CURVE('',#140,#139,#92,.T.);
#168=EDGE_CURVE('',#127,#140,#76,.T.);
#169=EDGE_CURVE('',#141,#141,#77,.T.);
#170=EDGE_CURVE('',#142,#142,#78,.T.);
#171=EDGE_CURVE('',#143,#143,#79,.T.);
#172=EDGE_CURVE('',#144,#144,#80,.T.);
#173=EDGE_CURVE('',#132,#137,#93,.T.);
#174=EDGE_CURVE('',#129,#140,#94,.T.);
#175=EDGE_CURVE('',#131,#138,#95,.T.);
#176=EDGE_CURVE('',#130,#139,#96,.T.);
#177=EDGE_CURVE('',#141,#133,#97,.T.);
#178=EDGE_CURVE('',#142,#134,#98,.T.);
#179=EDGE_CURVE('',#143,#135,#99,.T.);
#180=EDGE_CURVE('',#144,#136,#100,.T.);
#181=ORIENTED_EDGE('',*,*,#145,.T.);
#182=ORIENTED_EDGE('',*,*,#146,.T.);
#183=ORIENTED_EDGE('',*,*,#147,.F.);
#184=ORIENTED_EDGE('',*,*,#148,.F.);
#185=ORIENTED_EDGE('',*,*,#149,.T.);
#186=ORIENTED_EDGE('',*,*,#150,.T.);
#187=ORIENTED_EDGE('',*,*,#145,.F.);
#188=ORIENTED_EDGE('',*,*,#151,.F.);
#189=ORIENTED_EDGE('',*,*,#147,.T.);
#190=ORIENTED_EDGE('',*,*,#152,.T.);
#191=ORIENTED_EDGE('',*,*,#153,.F.);
#192=ORIENTED_EDGE('',*,*,#154,.F.);
#193=ORIENTED_EDGE('',*,*,#148,.T.);
#194=ORIENTED_EDGE('',*,*,#154,.T.);
#195=ORIENTED_EDGE('',*,*,#155,.T.);
#196=ORIENTED_EDGE('',*,*,#156,.T.);
#197=ORIENTED_EDGE('',*,*,#157,.T.);
#198=ORIENTED_EDGE('',*,*,#158,.T.);
#199=ORIENTED_EDGE('',*,*,#159,.T.);
#200=ORIENTED_EDGE('',*,*,#151,.T.);
#201=ORIENTED_EDGE('',*,*,#160,.F.);
#202=ORIENTED_EDGE('',*,*,#161,.F.);
#203=ORIENTED_EDGE('',*,*,#162,.F.);
#204=ORIENTED_EDGE('',*,*,#163,.F.);
#205=ORIENTED_EDGE('',*,*,#146,.F.);
#206=ORIENTED_EDGE('',*,*,#150,.F.);
#207=ORIENTED_EDGE('',*,*,#164,.F.);
#208=ORIENTED_EDGE('',*,*,#165,.F.);
#209=ORIENTED_EDGE('',*,*,#166,.F.);
#210=ORIENTED_EDGE('',*,*,#167,.F.);
#211=ORIENTED_EDGE('',*,*,#168,.F.);
#212=ORIENTED_EDGE('',*,*,#152,.F.);
#213=ORIENTED_EDGE('',*,*,#169,.T.);
#214=ORIENTED_EDGE('',*,*,#170,.T.);
#215=ORIENTED_EDGE('',*,*,#171,.T.);
#216=ORIENTED_EDGE('',*,*,#172,.T.);
#217=ORIENTED_EDGE('',*,*,#173,.T.);
#218=ORIENTED_EDGE('',*,*,#164,.T.);
#219=ORIENTED_EDGE('',*,*,#149,.F.);
#220=ORIENTED_EDGE('',*,*,#159,.F.);
#221=ORIENTED_EDGE('',*,*,#153,.T.);
#222=ORIENTED_EDGE('',*,*,#168,.T.);
#223=ORIENTED_EDGE('',*,*,#174,.F.);
#224=ORIENTED_EDGE('',*,*,#155,.F.);
#225=ORIENTED_EDGE('',*,*,#175,.T.);
#226=ORIENTED_EDGE('',*,*,#165,.T.);
#227=ORIENTED_EDGE('',*,*,#173,.F.);
#228=ORIENTED_EDGE('',*,*,#158,.F.);
#229=ORIENTED_EDGE('',*,*,#174,.T.);
#230=ORIENTED_EDGE('',*,*,#167,.T.);
#231=ORIENTED_EDGE('',*,*,#176,.F.);
#232=ORIENTED_EDGE('',*,*,#156,.F.);
#233=ORIENTED_EDGE('',*,*,#176,.T.);
#234=ORIENTED_EDGE('',*,*,#166,.T.);
#235=ORIENTED_EDGE('',*,*,#175,.F.);
#236=ORIENTED_EDGE('',*,*,#157,.F.);
#237=ORIENTED_EDGE('',*,*,#169,.F.);
#238=ORIENTED_EDGE('',*,*,#177,.T.);
#239=ORIENTED_EDGE('',*,*,#160,.T.);
#240=ORIENTED_EDGE('',*,*,#177,.F.);
#241=ORIENTED_EDGE('',*,*,#170,.F.);
#242=ORIENTED_EDGE('',*,*,#178,.T.);
#243=ORIENTED_EDGE('',*,*,#161,.T.);
#244=ORIENTED_EDGE('',*,*,#178,.F.);
#245=ORIENTED_EDGE('',*,*,#171,.F.);
#246=ORIENTED_EDGE('',*,*,#179,.T.);
#247=ORIENTED_EDGE('',*,*,#162,.T.);
#248=ORIENTED_EDGE('',*,*,#179,.F.);
#249=ORIENTED_EDGE('',*,*,#172,.F.);
#250=ORIENTED_EDGE('',*,*,#180,.T.);
#251=ORIENTED_EDGE('',*,*,#163,.T.);
#252=ORIENTED_EDGE('',*,*,#180,.F.);
#253=CYLINDRICAL_SURFACE('',#289,2.381250077504);
#254=CYLINDRICAL_SURFACE('',#310,2.381250077504);
#255=CYLINDRICAL_SURFACE('',#311,2.381250077504);
#256=CYLINDRICAL_SURFACE('',#314,2.381250077504);
#257=CYLINDRICAL_SURFACE('',#315,1.1);
#258=CYLINDRICAL_SURFACE('',#316,1.1);
#259=CYLINDRICAL_SURFACE('',#317,1.1);
#260=CYLINDRICAL_SURFACE('',#318,1.1);
#261=ADVANCED_FACE('',(#29),#253,.T.);
#262=ADVANCED_FACE('',(#30),#23,.T.);
#263=ADVANCED_FACE('',(#31),#24,.T.);
#264=ADVANCED_FACE('',(#32,#15,#16,#17,#18),#25,.F.);
#265=ADVANCED_FACE('',(#33,#19,#20,#21,#22),#26,.T.);
#266=ADVANCED_FACE('',(#34),#254,.T.);
#267=ADVANCED_FACE('',(#35),#255,.T.);
#268=ADVANCED_FACE('',(#36),#27,.T.);
#269=ADVANCED_FACE('',(#37),#28,.T.);
#270=ADVANCED_FACE('',(#38),#256,.T.);
#271=ADVANCED_FACE('',(#39),#257,.F.);
#272=ADVANCED_FACE('',(#40),#258,.F.);
#273=ADVANCED_FACE('',(#41),#259,.F.);
#274=ADVANCED_FACE('',(#42),#260,.F.);
#275=CLOSED_SHELL('',(#261,#262,#263,#264,#265,#266,#267,#268,#269,#270,
#271,#272,#273,#274));
#276=DERIVED_UNIT_ELEMENT(#278,1.);
#277=DERIVED_UNIT_ELEMENT(#481,-3.);
#278=(
MASS_UNIT()
NAMED_UNIT(*)
SI_UNIT(.KILO.,.GRAM.)
);
#279=DERIVED_UNIT((#276,#277));
#280=MEASURE_REPRESENTATION_ITEM('density measure',
POSITIVE_RATIO_MEASURE(7850.),#279);
#281=PROPERTY_DEFINITION_REPRESENTATION(#286,#283);
#282=PROPERTY_DEFINITION_REPRESENTATION(#287,#284);
#283=REPRESENTATION('material name',(#285),#478);
#284=REPRESENTATION('density',(#280),#478);
#285=DESCRIPTIVE_REPRESENTATION_ITEM('\X2\92FC\X0\','\X2\92FC\X0\');
#286=PROPERTY_DEFINITION('material property','material name',#488);
#287=PROPERTY_DEFINITION('material property','density of part',#488);
#288=AXIS2_PLACEMENT_3D('',#401,#319,#320);
#289=AXIS2_PLACEMENT_3D('',#402,#321,#322);
#290=AXIS2_PLACEMENT_3D('',#407,#324,#325);
#291=AXIS2_PLACEMENT_3D('',#410,#327,#328);
#292=AXIS2_PLACEMENT_3D('',#411,#329,#330);
#293=AXIS2_PLACEMENT_3D('',#417,#334,#335);
#294=AXIS2_PLACEMENT_3D('',#423,#339,#340);
#295=AXIS2_PLACEMENT_3D('',#425,#341,#342);
#296=AXIS2_PLACEMENT_3D('',#429,#344,#345);
#297=AXIS2_PLACEMENT_3D('',#432,#347,#348);
#298=AXIS2_PLACEMENT_3D('',#434,#349,#350);
#299=AXIS2_PLACEMENT_3D('',#436,#351,#352);
#300=AXIS2_PLACEMENT_3D('',#438,#353,#354);
#301=AXIS2_PLACEMENT_3D('',#440,#355,#356);
#302=AXIS2_PLACEMENT_3D('',#441,#357,#358);
#303=AXIS2_PLACEMENT_3D('',#443,#359,#360);
#304=AXIS2_PLACEMENT_3D('',#447,#362,#363);
#305=AXIS2_PLACEMENT_3D('',#450,#365,#366);
#306=AXIS2_PLACEMENT_3D('',#452,#367,#368);
#307=AXIS2_PLACEMENT_3D('',#454,#369,#370);
#308=AXIS2_PLACEMENT_3D('',#456,#371,#372);
#309=AXIS2_PLACEMENT_3D('',#458,#373,#374);
#310=AXIS2_PLACEMENT_3D('',#459,#375,#376);
#311=AXIS2_PLACEMENT_3D('',#461,#378,#379);
#312=AXIS2_PLACEMENT_3D('',#463,#381,#382);
#313=AXIS2_PLACEMENT_3D('',#465,#384,#385);
#314=AXIS2_PLACEMENT_3D('',#467,#387,#388);
#315=AXIS2_PLACEMENT_3D('',#468,#389,#390);
#316=AXIS2_PLACEMENT_3D('',#470,#392,#393);
#317=AXIS2_PLACEMENT_3D('',#472,#395,#396);
#318=AXIS2_PLACEMENT_3D('',#474,#398,#399);
#319=DIRECTION('axis',(0.,0.,1.));
#320=DIRECTION('refdir',(1.,0.,0.));
#321=DIRECTION('center_axis',(0.,0.,-1.));
#322=DIRECTION('ref_axis',(3.254772298996E-8,0.999999999999999,0.));
#323=DIRECTION('',(0.,0.,1.));
#324=DIRECTION('center_axis',(0.,0.,-1.));
#325=DIRECTION('ref_axis',(3.254772298996E-8,0.999999999999999,0.));
#326=DIRECTION('',(0.,0.,1.));
#327=DIRECTION('center_axis',(0.,0.,-1.));
#328=DIRECTION('ref_axis',(3.254772298996E-8,0.999999999999999,0.));
#329=DIRECTION('center_axis',(0.,1.,0.));
#330=DIRECTION('ref_axis',(1.,0.,0.));
#331=DIRECTION('',(0.,0.,1.));
#332=DIRECTION('',(1.,0.,0.));
#333=DIRECTION('',(1.,0.,0.));
#334=DIRECTION('center_axis',(1.,0.,0.));
#335=DIRECTION('ref_axis',(0.,-1.,0.));
#336=DIRECTION('',(0.,-1.,0.));
#337=DIRECTION('',(0.,0.,1.));
#338=DIRECTION('',(0.,-1.,0.));
#339=DIRECTION('center_axis',(0.,0.,1.));
#340=DIRECTION('ref_axis',(1.,0.,0.));
#341=DIRECTION('center_axis',(0.,0.,-1.));
#342=DIRECTION('ref_axis',(0.999999999999999,-3.254771702215E-8,0.));
#343=DIRECTION('',(-1.,0.,0.));
#344=DIRECTION('center_axis',(0.,0.,-1.));
#345=DIRECTION('ref_axis',(-3.254771180031E-8,-0.999999999999999,0.));
#346=DIRECTION('',(0.,1.,0.));
#347=DIRECTION('center_axis',(0.,0.,-1.));
#348=DIRECTION('ref_axis',(-0.999999999999999,3.254771403824E-8,0.));
#349=DIRECTION('center_axis',(0.,0.,-1.));
#350=DIRECTION('ref_axis',(-1.2918958832E-14,-1.,0.));
#351=DIRECTION('center_axis',(0.,0.,-1.));
#352=DIRECTION('ref_axis',(0.,-1.,0.));
#353=DIRECTION('center_axis',(0.,0.,-1.));
#354=DIRECTION('ref_axis',(0.,-1.,0.));
#355=DIRECTION('center_axis',(0.,0.,-1.));
#356=DIRECTION('ref_axis',(0.,-1.,0.));
#357=DIRECTION('center_axis',(0.,0.,1.));
#358=DIRECTION('ref_axis',(1.,0.,0.));
#359=DIRECTION('center_axis',(0.,0.,-1.));
#360=DIRECTION('ref_axis',(-0.999999999999999,3.254771403824E-8,0.));
#361=DIRECTION('',(0.,1.,0.));
#362=DIRECTION('center_axis',(0.,0.,-1.));
#363=DIRECTION('ref_axis',(-3.254771180031E-8,-0.999999999999999,0.));
#364=DIRECTION('',(-1.,0.,0.));
#365=DIRECTION('center_axis',(0.,0.,-1.));
#366=DIRECTION('ref_axis',(0.999999999999999,-3.254771702215E-8,0.));
#367=DIRECTION('center_axis',(0.,0.,-1.));
#368=DIRECTION('ref_axis',(-1.2918958832E-14,-1.,0.));
#369=DIRECTION('center_axis',(0.,0.,-1.));
#370=DIRECTION('ref_axis',(0.,-1.,0.));
#371=DIRECTION('center_axis',(0.,0.,-1.));
#372=DIRECTION('ref_axis',(0.,-1.,0.));
#373=DIRECTION('center_axis',(0.,0.,-1.));
#374=DIRECTION('ref_axis',(0.,-1.,0.));
#375=DIRECTION('center_axis',(0.,0.,-1.));
#376=DIRECTION('ref_axis',(-0.999999999999999,3.254771403824E-8,0.));
#377=DIRECTION('',(0.,0.,1.));
#378=DIRECTION('center_axis',(0.,0.,-1.));
#379=DIRECTION('ref_axis',(0.999999999999999,-3.254771702215E-8,0.));
#380=DIRECTION('',(0.,0.,1.));
#381=DIRECTION('center_axis',(-1.,0.,0.));
#382=DIRECTION('ref_axis',(0.,1.,0.));
#383=DIRECTION('',(0.,0.,1.));
#384=DIRECTION('center_axis',(0.,-1.,0.));
#385=DIRECTION('ref_axis',(-1.,0.,0.));
#386=DIRECTION('',(0.,0.,1.));
#387=DIRECTION('center_axis',(0.,0.,-1.));
#388=DIRECTION('ref_axis',(-3.254771180031E-8,-0.999999999999999,0.));
#389=DIRECTION('center_axis',(0.,0.,-1.));
#390=DIRECTION('ref_axis',(-1.2918958832E-14,-1.,0.));
#391=DIRECTION('',(0.,0.,-1.));
#392=DIRECTION('center_axis',(0.,0.,-1.));
#393=DIRECTION('ref_axis',(0.,-1.,0.));
#394=DIRECTION('',(0.,0.,-1.));
#395=DIRECTION('center_axis',(0.,0.,-1.));
#396=DIRECTION('ref_axis',(0.,-1.,0.));
#397=DIRECTION('',(0.,0.,-1.));
#398=DIRECTION('center_axis',(0.,0.,-1.));
#399=DIRECTION('ref_axis',(0.,-1.,0.));
#400=DIRECTION('',(0.,0.,-1.));
#401=CARTESIAN_POINT('',(0.,0.,0.));
#402=CARTESIAN_POINT('Origin',(235.74374992249,-21.4312500775,0.));
#403=CARTESIAN_POINT('',(235.74375,-19.05,0.));
#404=CARTESIAN_POINT('',(235.74375,-19.05,1.2));
#405=CARTESIAN_POINT('',(235.74375,-19.05,0.));
#406=CARTESIAN_POINT('',(238.125,-21.43125,1.2));
#407=CARTESIAN_POINT('Origin',(235.74374992249,-21.4312500775,1.2));
#408=CARTESIAN_POINT('',(238.125,-21.43125,0.));
#409=CARTESIAN_POINT('',(238.125,-21.43125,0.));
#410=CARTESIAN_POINT('Origin',(235.74374992249,-21.4312500775,0.));
#411=CARTESIAN_POINT('Origin',(11.90625,-19.05,0.));
#412=CARTESIAN_POINT('',(11.90625,-19.05,0.));
#413=CARTESIAN_POINT('',(11.90625,-19.05,1.2));
#414=CARTESIAN_POINT('',(11.90625,-19.05,0.));
#415=CARTESIAN_POINT('',(11.90625,-19.05,1.2));
#416=CARTESIAN_POINT('',(11.90625,-19.05,0.));
#417=CARTESIAN_POINT('Origin',(238.125,-21.43125,0.));
#418=CARTESIAN_POINT('',(238.125,-92.86875,1.2));
#419=CARTESIAN_POINT('',(238.125,-21.43125,1.2));
#420=CARTESIAN_POINT('',(238.125,-92.86875,0.));
#421=CARTESIAN_POINT('',(238.125,-92.86875,0.));
#422=CARTESIAN_POINT('',(238.125,-21.43125,0.));
#423=CARTESIAN_POINT('Origin',(0.,0.,0.));
#424=CARTESIAN_POINT('',(235.74375,-95.25,0.));
#425=CARTESIAN_POINT('Origin',(235.74374992249,-92.86874992249,0.));
#426=CARTESIAN_POINT('',(11.90625,-95.25,0.));
#427=CARTESIAN_POINT('',(235.74375,-95.25,0.));
#428=CARTESIAN_POINT('',(9.525,-92.86875,0.));
#429=CARTESIAN_POINT('Origin',(11.906250077504,-92.86874992249,0.));
#430=CARTESIAN_POINT('',(9.525,-21.43125,0.));
#431=CARTESIAN_POINT('',(9.525,-92.86875,0.));
#432=CARTESIAN_POINT('Origin',(11.906250077504,-21.4312500775,0.));
#433=CARTESIAN_POINT('',(78.58125,-84.625,0.));
#434=CARTESIAN_POINT('Origin',(78.58125,-85.725,0.));
#435=CARTESIAN_POINT('',(169.06875,-84.625,0.));
#436=CARTESIAN_POINT('Origin',(169.06875,-85.725,0.));
#437=CARTESIAN_POINT('',(32.146875,-41.7625,0.));
#438=CARTESIAN_POINT('Origin',(32.146875,-42.8625,0.));
#439=CARTESIAN_POINT('',(208.359375,-41.7625,0.));
#440=CARTESIAN_POINT('Origin',(208.359375,-42.8625,0.));
#441=CARTESIAN_POINT('Origin',(0.,0.,1.2));
#442=CARTESIAN_POINT('',(9.525,-21.43125,1.2));
#443=CARTESIAN_POINT('Origin',(11.906250077504,-21.4312500775,1.2));
#444=CARTESIAN_POINT('',(9.525,-92.86875,1.2));
#445=CARTESIAN_POINT('',(9.525,-92.86875,1.2));
#446=CARTESIAN_POINT('',(11.90625,-95.25,1.2));
#447=CARTESIAN_POINT('Origin',(11.906250077504,-92.86874992249,1.2));
#448=CARTESIAN_POINT('',(235.74375,-95.25,1.2));
#449=CARTESIAN_POINT('',(235.74375,-95.25,1.2));
#450=CARTESIAN_POINT('Origin',(235.74374992249,-92.86874992249,1.2));
#451=CARTESIAN_POINT('',(78.58125,-84.625,1.2));
#452=CARTESIAN_POINT('Origin',(78.58125,-85.725,1.2));
#453=CARTESIAN_POINT('',(169.06875,-84.625,1.2));
#454=CARTESIAN_POINT('Origin',(169.06875,-85.725,1.2));
#455=CARTESIAN_POINT('',(32.146875,-41.7625,1.2));
#456=CARTESIAN_POINT('Origin',(32.146875,-42.8625,1.2));
#457=CARTESIAN_POINT('',(208.359375,-41.7625,1.2));
#458=CARTESIAN_POINT('Origin',(208.359375,-42.8625,1.2));
#459=CARTESIAN_POINT('Origin',(11.906250077504,-21.4312500775,0.));
#460=CARTESIAN_POINT('',(9.525,-21.43125,0.));
#461=CARTESIAN_POINT('Origin',(235.74374992249,-92.86874992249,0.));
#462=CARTESIAN_POINT('',(235.74375,-95.25,0.));
#463=CARTESIAN_POINT('Origin',(9.525,-92.86875,0.));
#464=CARTESIAN_POINT('',(9.525,-92.86875,0.));
#465=CARTESIAN_POINT('Origin',(235.74375,-95.25,0.));
#466=CARTESIAN_POINT('',(11.90625,-95.25,0.));
#467=CARTESIAN_POINT('Origin',(11.906250077504,-92.86874992249,0.));
#468=CARTESIAN_POINT('Origin',(78.58125,-85.725,-0.046));
#469=CARTESIAN_POINT('',(78.58125,-84.625,-0.046));
#470=CARTESIAN_POINT('Origin',(169.06875,-85.725,-0.046));
#471=CARTESIAN_POINT('',(169.06875,-84.625,-0.046));
#472=CARTESIAN_POINT('Origin',(32.146875,-42.8625,-0.046));
#473=CARTESIAN_POINT('',(32.146875,-41.7625,-0.046));
#474=CARTESIAN_POINT('Origin',(208.359375,-42.8625,-0.046));
#475=CARTESIAN_POINT('',(208.359375,-41.7625,-0.046));
#476=UNCERTAINTY_MEASURE_WITH_UNIT(LENGTH_MEASURE(0.01),#480,
'DISTANCE_ACCURACY_VALUE',
'Maximum model space distance between geometric entities at asserted c
onnectivities');
#477=UNCERTAINTY_MEASURE_WITH_UNIT(LENGTH_MEASURE(0.01),#480,
'DISTANCE_ACCURACY_VALUE',
'Maximum model space distance between geometric entities at asserted c
onnectivities');
#478=(
GEOMETRIC_REPRESENTATION_CONTEXT(3)
GLOBAL_UNCERTAINTY_ASSIGNED_CONTEXT((#476))
GLOBAL_UNIT_ASSIGNED_CONTEXT((#480,#482,#483))
REPRESENTATION_CONTEXT('','3D')
);
#479=(
GEOMETRIC_REPRESENTATION_CONTEXT(3)
GLOBAL_UNCERTAINTY_ASSIGNED_CONTEXT((#477))
GLOBAL_UNIT_ASSIGNED_CONTEXT((#480,#482,#483))
REPRESENTATION_CONTEXT('','3D')
);
#480=(
LENGTH_UNIT()
NAMED_UNIT(*)
SI_UNIT(.MILLI.,.METRE.)
);
#481=(
LENGTH_UNIT()
NAMED_UNIT(*)
SI_UNIT($,.METRE.)
);
#482=(
NAMED_UNIT(*)
PLANE_ANGLE_UNIT()
SI_UNIT($,.RADIAN.)
);
#483=(
NAMED_UNIT(*)
SI_UNIT($,.STERADIAN.)
SOLID_ANGLE_UNIT()
);
#484=SHAPE_DEFINITION_REPRESENTATION(#485,#486);
#485=PRODUCT_DEFINITION_SHAPE('',$,#488);
#486=SHAPE_REPRESENTATION('',(#288),#478);
#487=PRODUCT_DEFINITION_CONTEXT('part definition',#492,'design');
#488=PRODUCT_DEFINITION('barda_bottom_plate_PCB',
'barda_bottom_plate_PCB',#489,#487);
#489=PRODUCT_DEFINITION_FORMATION('',$,#494);
#490=PRODUCT_RELATED_PRODUCT_CATEGORY('barda_bottom_plate_PCB',
'barda_bottom_plate_PCB',(#494));
#491=APPLICATION_PROTOCOL_DEFINITION('international standard',
'automotive_design',2009,#492);
#492=APPLICATION_CONTEXT(
'Core Data for Automotive Mechanical Design Process');
#493=PRODUCT_CONTEXT('part definition',#492,'mechanical');
#494=PRODUCT('barda_bottom_plate_PCB','barda_bottom_plate_PCB',$,(#493));
#495=PRESENTATION_STYLE_ASSIGNMENT((#497));
#496=PRESENTATION_STYLE_ASSIGNMENT((#498));
#497=SURFACE_STYLE_USAGE(.BOTH.,#499);
#498=SURFACE_STYLE_USAGE(.BOTH.,#500);
#499=SURFACE_SIDE_STYLE('',(#501));
#500=SURFACE_SIDE_STYLE('',(#502));
#501=SURFACE_STYLE_FILL_AREA(#503);
#502=SURFACE_STYLE_FILL_AREA(#504);
#503=FILL_AREA_STYLE('\X2\92FC\X0\ - \X2\30B530C630F3\X0\',(#505));
#504=FILL_AREA_STYLE('\X2\30A230EB30DF30CB30A630E0\X0\ - \X2\30B530C630F3\X0\',
(#506));
#505=FILL_AREA_STYLE_COLOUR('\X2\92FC\X0\ - \X2\30B530C630F3\X0\',#507);
#506=FILL_AREA_STYLE_COLOUR('\X2\30A230EB30DF30CB30A630E0\X0\ - \X2\30B530C630F3\X0\',
#508);
#507=COLOUR_RGB('\X2\92FC\X0\ - \X2\30B530C630F3\X0\',0.627450980392157,
0.627450980392157,0.627450980392157);
#508=COLOUR_RGB('\X2\30A230EB30DF30CB30A630E0\X0\ - \X2\30B530C630F3\X0\',
0.96078431372549,0.96078431372549,0.964705882352941);
ENDSEC;
END-ISO-10303-21;
